<svg width="24" height="25" viewBox="0 0 24 25" fill="none" xmlns="http://www.w3.org/2000/svg">
<path fill-rule="evenodd" clip-rule="evenodd" d="M12 21.6719C13.1819 21.6719 14.3522 21.4391 15.4442 20.9868C16.5361 20.5345 17.5282 19.8716 18.364 19.0358C19.1997 18.2001 19.8626 17.208 20.3149 16.116C20.7672 15.0241 21 13.8538 21 12.6719C21 11.49 20.7672 10.3197 20.3149 9.22772C19.8626 8.13579 19.1997 7.14364 18.364 6.30791C17.5282 5.47219 16.5361 4.80925 15.4442 4.35696C14.3522 3.90467 13.1819 3.67187 12 3.67188C9.61305 3.67188 7.32387 4.62009 5.63604 6.30791C3.94821 7.99574 3 10.2849 3 12.6719C3 15.0588 3.94821 17.348 5.63604 19.0358C7.32387 20.7237 9.61305 21.6719 12 21.6719ZM11.768 16.3119L16.768 10.3119L15.232 9.03187L10.932 14.1909L8.707 11.9649L7.293 13.3789L10.293 16.3789L11.067 17.1529L11.768 16.3119Z" fill="black"/>
</svg>
