<svg width="25" height="26" viewBox="0 0 25 26" fill="none" xmlns="http://www.w3.org/2000/svg">
<g clip-path="url(#clip0_99_466)">
<path d="M0.892822 22.4935V2.85066C0.892822 2.37705 1.08096 1.92285 1.41585 1.58797C1.75073 1.25308 2.20494 1.06494 2.67854 1.06494H22.3214C22.795 1.06494 23.2492 1.25308 23.5841 1.58797C23.919 1.92285 24.1071 2.37705 24.1071 2.85066V22.4935C24.1071 22.9671 23.919 23.4213 23.5841 23.7562C23.2492 24.0911 22.795 24.2792 22.3214 24.2792H16.9643V15.8149H18.2321C18.521 15.8149 18.7981 15.7002 19.0024 15.4959C19.2066 15.2916 19.3214 15.0146 19.3214 14.7257V13.3507C19.3209 13.0619 19.206 12.7851 19.0018 12.5809C18.7976 12.3768 18.5209 12.2618 18.2321 12.2614H17.0357V10.5828C17.0357 9.0828 17.7143 9.0828 18.3928 9.0828H19.2678C19.4115 9.08872 19.5548 9.063 19.6875 9.00746C19.8202 8.95192 19.939 8.86791 20.0357 8.76137C20.1395 8.66258 20.2216 8.54332 20.2769 8.41115C20.3323 8.27899 20.3596 8.13677 20.3571 7.99351V6.67208C20.3624 6.52656 20.3387 6.38143 20.2876 6.24507C20.2365 6.10871 20.1589 5.98381 20.0593 5.87757C19.9598 5.77134 19.8401 5.68586 19.7073 5.62608C19.5745 5.56629 19.4312 5.53337 19.2857 5.52923H17.2321C16.6329 5.5067 16.036 5.61451 15.4825 5.84522C14.929 6.07593 14.4322 6.42403 14.0264 6.86548C13.6206 7.30693 13.3155 7.83121 13.1321 8.40211C12.9487 8.973 12.8915 9.57689 12.9643 10.1721V12.2614H11.8214C11.6769 12.259 11.5333 12.2854 11.3991 12.3391C11.2648 12.3928 11.1426 12.4726 11.0396 12.574C10.9365 12.6754 10.8547 12.7963 10.7988 12.9296C10.743 13.063 10.7142 13.2061 10.7143 13.3507V14.7257C10.7142 14.8702 10.743 15.0133 10.7988 15.1467C10.8547 15.28 10.9365 15.4009 11.0396 15.5023C11.1426 15.6037 11.2648 15.6835 11.3991 15.7372C11.5333 15.7909 11.6769 15.8173 11.8214 15.8149H12.9643V24.2792H2.67854C2.20494 24.2792 1.75073 24.0911 1.41585 23.7562C1.08096 23.4213 0.892822 22.9671 0.892822 22.4935Z" stroke="black" stroke-linecap="round" stroke-linejoin="round"/>
</g>
<defs>
<clipPath id="clip0_99_466">
<rect width="25" height="25" fill="white" transform="translate(0 0.171875)"/>
</clipPath>
</defs>
</svg>
