<svg width="30" height="31" viewBox="0 0 30 31" fill="none" xmlns="http://www.w3.org/2000/svg">
<path d="M3.75 14.4219C3.75 9.70813 3.75 7.35062 5.215 5.88687C6.67875 4.42187 9.03625 4.42188 13.75 4.42188H16.25C20.9637 4.42188 23.3212 4.42187 24.785 5.88687C26.25 7.35062 26.25 9.70813 26.25 14.4219V16.9219C26.25 21.6356 26.25 23.9931 24.785 25.4569C23.3212 26.9219 20.9637 26.9219 16.25 26.9219H13.75C9.03625 26.9219 6.67875 26.9219 5.215 25.4569C3.75 23.9931 3.75 21.6356 3.75 16.9219V14.4219Z" stroke="black"/>
<path d="M20.625 11.9219C21.6605 11.9219 22.5 11.0824 22.5 10.0469C22.5 9.01134 21.6605 8.17188 20.625 8.17188C19.5895 8.17188 18.75 9.01134 18.75 10.0469C18.75 11.0824 19.5895 11.9219 20.625 11.9219Z" fill="black"/>
<path d="M15 20.0469C17.4162 20.0469 19.375 18.0881 19.375 15.6719C19.375 13.2556 17.4162 11.2969 15 11.2969C12.5838 11.2969 10.625 13.2556 10.625 15.6719C10.625 18.0881 12.5838 20.0469 15 20.0469Z" stroke="black"/>
</svg>
