<svg width="123" height="40" viewBox="0 0 123 40" fill="none" xmlns="http://www.w3.org/2000/svg">
<path d="M114.721 25.7317H112.772V18.3864H111.454V16.7621H112.772C112.808 14.7408 114.017 13.6399 116.291 13.6399H117.013V15.192H115.93C115.064 15.192 114.667 15.5168 114.667 16.2748V16.7621H118.042L118.457 14.5423H119.955V16.7621H122.662V18.3864H119.955V22.8802C119.955 23.8186 120.352 23.9811 121.561 23.9811H122.662V25.5692C122.283 25.6595 121.669 25.7317 121.056 25.7317C119.052 25.7317 118.006 24.9917 118.006 22.9704V18.3864H114.721V25.7317Z" fill="white"/>
<path d="M110.565 15.6251H108.634L108.616 13.6399H110.565V15.6251ZM110.583 25.7317H108.634V16.708H110.583V25.7317Z" fill="white"/>
<path d="M100.416 25.7317H98.4673V13.6399H100.416V18.26H100.489C100.904 17.4479 101.86 16.5816 103.484 16.5816C105.831 16.5816 106.823 18.1157 106.823 20.0828V25.7317H104.874V20.534C104.874 18.9278 104.369 18.26 102.726 18.26C101.138 18.26 100.416 18.8736 100.416 20.5701V25.7317Z" fill="white"/>
<path d="M93.3742 25.9122C90.7573 25.9122 89.3857 24.8835 89.3857 22.6997V22.6636H91.2627V22.9885C91.2627 23.9631 91.6958 24.324 93.4103 24.324C94.8541 24.324 95.1248 23.9992 95.1248 23.3314C95.1248 22.6095 94.6917 22.3929 93.3742 22.1583L91.9845 21.9237C90.3783 21.6349 89.3677 20.913 89.3677 19.2888C89.3677 17.6645 90.7032 16.5817 93.0493 16.5817C95.1609 16.5817 96.7491 17.6284 96.7491 19.6678V19.8302H94.8902V19.6136C94.8902 18.7834 94.6014 18.1879 92.9952 18.1879C91.5695 18.1879 91.2266 18.5669 91.2266 19.2527C91.2266 19.9385 91.5514 20.137 92.8147 20.3897L94.3307 20.6784C96.0633 21.0213 96.9656 21.7974 96.9656 23.2773C96.9656 24.9376 95.6482 25.9122 93.3742 25.9122Z" fill="white"/>
<path d="M88.5575 25.7317H80.0752V24.1976L84.4427 19.758L85.5977 18.621V18.4766H80.3459V16.7621H88.2868V18.4224L83.793 22.8621L82.7462 23.8728V24.0171H88.5575V25.7317Z" fill="white"/>
<path d="M77.6527 25.7316C75.6494 25.7316 74.6027 24.9917 74.6027 22.9704V18.3863H73.1047V16.7621H74.6388L75.0539 14.5422H76.5518V16.7621H79.2589V18.3863H76.5518V22.8801C76.5518 23.8186 76.9488 23.981 78.158 23.981H79.2589V25.5692C78.8799 25.6594 78.2663 25.7316 77.6527 25.7316Z" fill="white"/>
<path d="M72.0939 25.7317H70.1448V13.6399H72.0939V25.7317Z" fill="white"/>
<path d="M64.2665 25.9122C61.5053 25.9122 59.7908 24.0352 59.7908 21.2379C59.7908 18.4586 61.5053 16.5817 64.2665 16.5817C67.0097 16.5817 68.6701 18.4586 68.6701 21.2379C68.6701 24.0352 67.0097 25.9122 64.2665 25.9122ZM64.2665 24.1796C66.1435 24.1796 66.7932 23.2592 66.7932 21.2379C66.7932 19.2346 66.1435 18.3142 64.2665 18.3142C62.3716 18.3142 61.7038 19.2346 61.7038 21.2379C61.7038 23.2592 62.3716 24.1796 64.2665 24.1796Z" fill="white"/>
<path d="M54.772 25.7317H48.9968V13.6399H54.5554C56.9196 13.6399 58.3454 14.6145 58.3454 16.6538C58.3454 18.0615 57.5513 19.018 55.9992 19.2526V19.397C57.8401 19.6316 58.7785 20.8228 58.7785 22.4109C58.7785 24.4683 57.3167 25.7317 54.772 25.7317ZM50.9459 15.3905V18.6571H54.375C55.8368 18.6571 56.4143 18.26 56.4143 17.0328C56.4143 15.7875 55.8909 15.3905 54.4291 15.3905H50.9459ZM50.9459 20.2813V23.9811H54.7179C56.1797 23.9811 56.8114 23.566 56.8114 22.1402C56.8114 20.6964 56.1797 20.2813 54.7179 20.2813H50.9459Z" fill="white"/>
<path d="M19.2401 0.0152099C23.0186 -0.133842 26.8351 0.815535 30.0952 2.73423C34.3769 5.22729 37.6713 9.36658 39.1143 14.1097C40.3779 18.1977 40.283 22.693 38.839 26.7212C37.658 30.0393 35.5779 33.0317 32.8817 35.296C30.25 37.5204 27.0326 39.047 23.6423 39.666C19.4299 40.452 14.9698 39.8416 11.1314 37.9314C8.95357 36.8492 6.97032 35.371 5.3203 33.5833C2.99718 31.0817 1.33102 27.9734 0.543986 24.6506C-0.33134 20.9746 -0.150958 17.0489 1.08988 13.4774C2.76458 8.55296 6.46335 4.36336 11.1314 2.07251C13.6454 0.816484 16.4328 0.119641 19.2401 0.0152099ZM24.6078 8.23397C20.2075 11.3641 15.8119 14.5018 11.4115 17.6319C10.8314 17.9651 10.3634 18.6268 10.5305 19.3208C10.6121 19.7186 11.0061 20.0148 11.4096 19.9949C14.8302 20.0025 18.2499 19.9398 21.6695 19.9844C21.5983 20.0186 21.455 20.0869 21.3828 20.1211C19.6616 20.7316 17.9347 21.3278 16.2173 21.9506C15.4312 24.7398 14.6479 27.5301 13.8609 30.3193C13.7811 30.6079 13.6701 30.9032 13.7166 31.208C13.7622 31.5516 14.0185 31.8659 14.3565 31.957C14.7353 32.069 15.1397 31.9409 15.454 31.7216C19.9046 28.5487 24.3572 25.3788 28.8079 22.2079C29.349 21.8414 29.6908 21.0743 29.3766 20.4582C29.2285 20.1278 28.8449 19.9835 28.5022 19.9968C26.7458 19.993 24.9885 19.9987 23.2322 19.9939C24.2338 16.4271 25.2411 12.8622 26.2417 9.29537C26.3443 8.93651 26.2911 8.50074 26.0015 8.24251C25.6151 7.89504 25.0132 7.95295 24.6078 8.23397Z" fill="#FAD007"/>
</svg>
