<svg width="26" height="26" viewBox="0 0 26 26" fill="none" xmlns="http://www.w3.org/2000/svg">
<path d="M25.5 13.1719C25.5 20.0469 19.875 25.6719 13 25.6719C6.125 25.6719 0.5 20.0469 0.5 13.1719C0.5 6.29688 6.125 0.671875 13 0.671875C19.875 0.671875 25.5 6.29688 25.5 13.1719ZM23 13.1719C23 7.64687 18.525 3.17188 13 3.17188C7.475 3.17188 3 7.64687 3 13.1719C3 18.6969 7.475 23.1719 13 23.1719C18.525 23.1719 23 18.6969 23 13.1719ZM21.75 13.1719C21.75 18.0094 17.8375 21.9219 13 21.9219C8.1625 21.9219 4.25 18.0094 4.25 13.1719C4.25 8.33438 8.1625 4.42188 13 4.42188V13.1719H21.75Z" fill="black"/>
</svg>
