<svg width="30" height="29" viewBox="0 0 30 29" fill="none" xmlns="http://www.w3.org/2000/svg">
<path d="M27.5 14.6718C27.4993 11.5778 26.1822 8.61069 23.8381 6.4229C21.494 4.23511 18.315 3.00575 15 3.00513V5.33846C16.9776 5.33888 18.9107 5.88637 20.5551 6.91175C22.1995 7.93714 23.4814 9.39441 24.2388 11.0995C24.7414 12.232 25.0001 13.4459 25 14.6718H27.5ZM2.5 12.3385V6.50513C2.5 6.19571 2.6317 5.89896 2.86612 5.68017C3.10054 5.46138 3.41848 5.33846 3.75 5.33846H10C10.3315 5.33846 10.6495 5.46138 10.8839 5.68017C11.1183 5.89896 11.25 6.19571 11.25 6.50513V11.1718C11.25 11.4812 11.1183 11.778 10.8839 11.9968C10.6495 12.2155 10.3315 12.3385 10 12.3385H7.5C7.5 14.8138 8.55357 17.1878 10.4289 18.9381C12.3043 20.6885 14.8478 21.6718 17.5 21.6718V19.3385C17.5 19.029 17.6317 18.7323 17.8661 18.5135C18.1005 18.2947 18.4185 18.1718 18.75 18.1718H23.75C24.0815 18.1718 24.3995 18.2947 24.6339 18.5135C24.8683 18.7323 25 19.029 25 19.3385V25.1718C25 25.4812 24.8683 25.778 24.6339 25.9968C24.3995 26.2155 24.0815 26.3385 23.75 26.3385H17.5C9.21625 26.3385 2.5 20.07 2.5 12.3385Z" fill="#FAD007"/>
<path d="M21.9287 11.9932C22.3061 12.8423 22.5002 13.7526 22.5 14.6719H20.25C20.2502 14.0284 20.1145 13.3911 19.8507 12.7965C19.5869 12.202 19.2002 11.6617 18.7127 11.2067C18.2251 10.7517 17.6463 10.3907 17.0093 10.1446C16.3722 9.89836 15.6895 9.77172 15 9.77188V7.67188C16.4833 7.67195 17.9333 8.08254 19.1666 8.85173C20.3999 9.62091 21.3611 10.7142 21.9287 11.9932Z" fill="#FAD007"/>
</svg>
