<svg width="30" height="31" viewBox="0 0 30 31" fill="none" xmlns="http://www.w3.org/2000/svg">
<path d="M24.2961 25.593H5.70239C4.87359 25.593 4.07874 25.2637 3.49268 24.6777C2.90663 24.0916 2.57739 23.2968 2.57739 22.468V8.87549C2.57739 8.04669 2.90663 7.25183 3.49268 6.66578C4.07874 6.07973 4.87359 5.75049 5.70239 5.75049H24.2961C25.1249 5.75049 25.9198 6.07973 26.5059 6.66578C27.0919 7.25183 27.4211 8.04669 27.4211 8.87549V22.468C27.4211 23.2968 27.0919 24.0916 26.5059 24.6777C25.9198 25.2637 25.1249 25.593 24.2961 25.593ZM5.70239 7.00049C5.20511 7.00049 4.7282 7.19803 4.37657 7.54966C4.02494 7.90129 3.82739 8.37821 3.82739 8.87549V22.468C3.82739 22.9653 4.02494 23.4422 4.37657 23.7938C4.7282 24.1454 5.20511 24.343 5.70239 24.343H24.2961C24.7934 24.343 25.2703 24.1454 25.622 23.7938C25.9736 23.4422 26.1711 22.9653 26.1711 22.468V8.87549C26.1711 8.37821 25.9736 7.90129 25.622 7.54966C25.2703 7.19803 24.7934 7.00049 24.2961 7.00049H5.70239Z" fill="black"/>
<path d="M18.2099 14.6083L13.2499 11.212C13.0562 11.0797 12.8301 11.0028 12.5959 10.9894C12.3617 10.976 12.1283 11.0268 11.9208 11.1362C11.7133 11.2456 11.5395 11.4095 11.4182 11.6103C11.2969 11.8111 11.2327 12.0412 11.2324 12.2758V19.0683C11.2327 19.3028 11.2969 19.5329 11.4182 19.7337C11.5395 19.9345 11.7133 20.0984 11.9208 20.2078C12.1283 20.3172 12.3617 20.368 12.5959 20.3546C12.8301 20.3413 13.0562 20.2643 13.2499 20.132L18.2149 16.7358C18.3876 16.617 18.5288 16.458 18.6261 16.2724C18.7235 16.0868 18.7741 15.8803 18.7736 15.6707C18.7731 15.4611 18.7215 15.2548 18.6233 15.0697C18.5251 14.8846 18.3832 14.7262 18.2099 14.6083Z" fill="black"/>
</svg>
